<svg width="48" height="32" viewBox="0 0 48 32" fill="none" xmlns="http://www.w3.org/2000/svg">
  <path d="M1 7.29158C3.46798 6.41016 6.74687 7.64414 13.5162 13.9904C14.9265 13.344 19.0163 11.9807 24.0932 11.6987C29.1702 11.4166 31.1446 11.5812 31.4972 11.6987C32.3786 8.76062 35.0581 2.70818 38.7248 2.00305C43.3082 1.12162 42.9557 16.9872 43.132 17.8686C43.3082 18.7501 44.8948 18.7501 46.6576 23.686C47.5391 27.2117 46.4814 28.622 46.1288 30.0323" stroke="white" stroke-opacity="0.8" stroke-width="2" stroke-linecap="round" stroke-linejoin="round" />
  <path d="M17.5 24.2142C15.7371 21.9225 16.266 19.6727 17.5 18.9676C17.9113 18.8501 17.766 18.6151 19 18.9677C19.5289 19.6728 20.0577 21.5699 19 24.2142L18.277 24.3904L17.5 24.2142Z" fill="white" fill-opacity="0.8" stroke="white" stroke-opacity="0.8" stroke-width="0.5" />
  <path d="M17.6598 18.7612C20.0906 18.5736 21.9815 20.5123 22.6837 21.763C22.6837 21.763 22.3595 24.3896 17.9838 24.3896C13.6051 24.3896 14.1143 21.5138 14.2564 21.0126C14.3984 20.5114 14.6781 18.9913 17.6598 18.7612Z" stroke="white" stroke-opacity="0.8" stroke-width="0.5" />
  <path d="M35.5 16.4676C33.6666 17.1727 33.2004 18.1034 33.0829 18.9261C33.0829 19.1791 33.9118 20.4528 35.5 20.9677C37.5 18.9261 36.5 17.3395 35.5 16.4676Z" fill="white" fill-opacity="0.8" />
  <path d="M35.5 16.4676C37.7917 15.5862 39.36 16.9937 39.4292 17.3395C39.6055 18.2209 39.958 20.3363 38.0189 21.2177C37.4713 21.4666 36.125 21.1702 35.5 20.9677M35.5 16.4676C33.6666 17.1727 33.2004 18.1034 33.0829 18.9261C33.0829 19.1791 33.9118 20.4528 35.5 20.9677M35.5 16.4676C36.5 17.3395 37.5 18.9261 35.5 20.9677" stroke="white" stroke-opacity="0.8" stroke-width="0.5" />
</svg>
  