<svg width="100%" height="100%" viewBox="0 0 455 443" fill="none" xmlns="http://www.w3.org/2000/svg">
  <path d="M428.068 122.699C423.809 115.015 419.083 107.598 413.917 100.491C410.297 95.5052 406.472 90.6856 402.442 86.0323H402.432C395.14 77.6084 387.21 69.7591 378.712 62.554C376.973 61.0768 375.21 59.6299 373.423 58.2133C357.299 45.3853 339.417 34.9368 320.325 27.187L320.495 55.0857L322.322 373.115H163.979L155.074 55.6857L155.737 28.2326C78.1064 60.8824 23.5982 137.648 23.5982 227.149C23.5837 245.623 25.9406 264.021 30.611 281.895C32.5836 289.45 34.9719 296.891 37.7649 304.183C38.7732 306.83 39.8369 309.453 40.9561 312.053C41.4956 313.319 42.0451 314.574 42.6148 315.824C43.3458 317.458 44.1071 319.086 44.8885 320.694C45.4935 321.96 46.1153 323.217 46.7539 324.465C47.5756 326.104 48.4243 327.729 49.2998 329.34C49.9754 330.606 50.6711 331.861 51.3769 333.111C62.7639 353.253 77.3048 371.44 94.4465 386.98C99.3317 391.411 104.415 395.613 109.697 399.584C147.069 427.666 192.552 442.85 239.299 442.85C286.046 442.85 331.529 427.666 368.901 399.584C371.775 397.426 374.59 395.196 377.346 392.894C379.176 391.371 380.975 389.82 382.745 388.24C383.214 387.822 383.683 387.403 384.147 386.98C399.95 372.653 413.551 356.071 424.509 337.77C428.533 331.06 432.182 324.133 435.439 317.019C436.301 315.144 437.136 313.251 437.944 311.342C441.665 302.589 444.794 293.597 447.312 284.426C447.7 283.009 448.075 281.587 448.436 280.161V280.156C448.496 279.908 448.562 279.656 448.622 279.409C448.996 277.907 449.353 276.395 449.696 274.882V274.877C450.805 270.002 451.741 265.068 452.504 260.075C452.6 259.435 452.696 258.795 452.787 258.154C452.822 257.923 452.857 257.691 452.883 257.459V257.454C453.427 253.597 453.869 249.712 454.208 245.798C454.733 239.652 454.997 233.436 455 227.149C455.057 190.608 445.787 154.657 428.068 122.699Z" fill="#F2F2F2" />
  <path d="M406.876 357.353C419.643 340.103 424.553 315.804 414.622 296.779C405.308 318.178 388.725 335.594 367.807 345.943C359.725 349.906 350.324 353.471 346.583 361.658C344.255 366.751 344.698 372.766 346.57 378.045C348.441 383.324 351.623 388.02 354.772 392.652L354.938 394.04C374.763 385.82 394.109 374.604 406.876 357.353Z" fill="#E6E6E6" />
  <path d="M414.197 296.933C413.625 314.688 407.473 331.811 396.615 345.871C394.332 348.939 391.579 351.628 388.458 353.839C385.348 355.894 381.744 357.079 378.021 357.271C374.554 357.519 370.978 357.372 367.631 358.459C365.926 359.041 364.364 359.977 363.046 361.205C361.728 362.433 360.685 363.926 359.984 365.585C358.131 369.675 357.858 374.187 357.745 378.609C357.619 383.518 357.566 388.619 355.25 393.082C354.97 393.623 355.825 394.027 356.105 393.487C360.134 385.722 357.518 376.642 359.919 368.48C361.039 364.672 363.314 361.177 367.116 359.651C370.441 358.317 374.129 358.465 377.642 358.244C381.276 358.11 384.823 357.089 387.971 355.268C391.195 353.223 394.047 350.645 396.405 347.643C401.823 340.97 406.157 333.487 409.25 325.467C412.831 316.334 414.822 306.656 415.139 296.851C415.159 296.244 414.216 296.331 414.197 296.933Z" fill="white" />
  <path d="M400.383 341.55C402.989 343.051 406.044 343.577 409.002 343.034C411.961 342.491 414.629 340.914 416.532 338.585C416.916 338.112 416.199 337.494 415.816 337.968C414.047 340.14 411.561 341.608 408.805 342.108C406.05 342.609 403.206 342.107 400.787 340.694C400.261 340.388 399.86 341.245 400.383 341.55Z" fill="white" />
  <path d="M379.8 357.374C378.151 351.451 378.794 345.124 381.602 339.654C381.88 339.112 381.025 338.709 380.747 339.25C377.835 344.947 377.179 351.533 378.91 357.692C379.075 358.279 379.965 357.958 379.8 357.374Z" fill="white" />
  <path d="M411.577 316.377C410.448 316.006 409.428 315.361 408.61 314.499C407.791 313.636 407.2 312.584 406.889 311.437C406.731 310.848 405.841 311.171 405.998 311.755C406.348 313.021 407.002 314.183 407.904 315.137C408.806 316.092 409.928 316.811 411.172 317.232C411.286 317.282 411.415 317.286 411.532 317.244C411.649 317.202 411.746 317.118 411.802 317.007C411.855 316.894 411.861 316.764 411.819 316.646C411.777 316.528 411.69 316.431 411.577 316.377Z" fill="white" />
  <path d="M343.553 281.638C343.641 282.009 343.729 282.379 343.812 282.756C344.971 287.742 345.722 292.815 346.059 297.923C346.091 298.318 346.118 298.718 346.139 299.113C346.82 311.429 345.208 323.764 341.385 335.492C339.86 340.157 337.982 344.7 335.768 349.08C332.709 355.129 328.911 361.445 328.055 367.959C327.958 368.638 327.903 369.322 327.891 370.008L353.232 394.135C353.317 394.16 353.397 394.192 353.482 394.219L354.45 395.228C354.58 395.01 354.71 394.781 354.84 394.564C354.916 394.437 354.986 394.306 355.062 394.18C355.111 394.094 355.16 394.008 355.209 393.933C355.225 393.905 355.241 393.876 355.252 393.853C355.301 393.779 355.339 393.704 355.382 393.635C356.113 392.358 356.836 391.074 357.552 389.782C357.557 389.776 357.557 389.776 357.557 389.765C362.984 379.908 367.636 369.512 370.562 358.74C370.65 358.416 370.743 358.086 370.82 357.751C372.112 352.888 373.004 347.928 373.488 342.92C373.744 340.176 373.861 337.422 373.839 334.667C373.767 327.548 372.576 320.486 370.31 313.737C365.79 300.285 357.018 288.428 344.513 282.111C344.193 281.95 343.879 281.794 343.553 281.638Z" fill="#E6E6E6" />
  <path d="M343.304 282.014C353.537 296.534 358.935 313.91 358.73 331.672C358.754 335.497 358.175 339.302 357.014 342.946C355.768 346.46 353.604 349.575 350.747 351.97C348.128 354.256 345.185 356.291 343.167 359.174C342.156 360.665 341.472 362.353 341.159 364.127C340.846 365.901 340.912 367.721 341.352 369.468C342.335 373.85 344.833 377.616 347.405 381.215C350.26 385.211 353.289 389.316 354.127 394.273C354.228 394.874 355.154 394.681 355.053 394.081C353.595 385.456 346.04 379.782 343.042 371.819C341.644 368.103 341.357 363.944 343.474 360.436C345.325 357.369 348.359 355.267 351.03 352.975C353.852 350.68 356.068 347.73 357.486 344.38C358.829 340.807 359.554 337.031 359.63 333.214C359.938 324.625 358.893 316.04 356.534 307.775C353.894 298.327 349.658 289.4 344.007 281.381C343.658 280.884 342.957 281.521 343.304 282.014Z" fill="white" />
  <path d="M359.131 325.96C362.116 325.59 364.872 324.171 366.907 321.956C368.942 319.742 370.124 316.876 370.241 313.87C370.263 313.262 369.319 313.2 369.297 313.809C369.193 316.608 368.092 319.277 366.193 321.336C364.294 323.394 361.721 324.706 358.94 325.034C358.335 325.106 358.53 326.032 359.131 325.96Z" fill="white" />
  <path d="M352.231 350.992C347.348 347.256 344.052 341.817 343.001 335.759C342.898 335.159 341.971 335.352 342.075 335.951C343.181 342.253 346.622 347.906 351.712 351.783C352.198 352.152 352.714 351.359 352.231 350.992Z" fill="white" />
  <path d="M352.925 299.118C351.8 299.502 350.598 299.6 349.425 299.405C348.253 299.209 347.147 298.725 346.208 297.996C345.727 297.621 345.211 298.414 345.688 298.787C346.73 299.587 347.951 300.12 349.246 300.339C350.541 300.558 351.87 300.457 353.117 300.044C353.238 300.015 353.343 299.941 353.411 299.837C353.48 299.734 353.506 299.608 353.484 299.485C353.458 299.363 353.385 299.255 353.28 299.187C353.176 299.118 353.048 299.093 352.925 299.118Z" fill="white" />
  <path d="M10.0697 260.742C-1.25324 242.511 -4.17238 217.894 7.27217 199.739C14.8163 221.824 29.9292 240.53 49.9371 252.545C57.6701 257.151 66.7506 261.469 69.8137 269.932C71.7198 275.199 70.7892 281.157 68.4953 286.266C66.2011 291.376 62.6474 295.798 59.1324 300.159L58.8542 301.529C39.763 291.725 21.3927 278.974 10.0697 260.742Z" fill="#E6E6E6" />
  <path d="M7.68033 199.925C6.80761 217.667 11.5475 235.234 21.2268 250.129C23.2536 253.373 25.7791 256.276 28.7101 258.734C31.6427 261.035 35.138 262.509 38.8329 263.003C42.2689 263.532 45.8447 263.676 49.0921 265.031C50.744 265.75 52.2255 266.809 53.4392 268.141C54.6529 269.472 55.5715 271.045 56.1348 272.756C57.6492 276.983 57.5545 281.502 57.3083 285.918C57.0349 290.821 56.6732 295.91 58.6185 300.546C58.8542 301.108 57.9688 301.441 57.7334 300.88C54.349 292.814 57.6942 283.977 55.9646 275.646C55.1575 271.759 53.1741 268.092 49.5084 266.261C46.3029 264.661 42.6156 264.51 39.132 264.004C35.5204 263.575 32.0688 262.268 29.0785 260.198C26.0318 257.898 23.3988 255.096 21.292 251.913C16.4349 244.822 12.7229 237.011 10.292 228.767C7.46551 219.373 6.2668 209.565 6.74771 199.766C6.77772 199.16 7.71016 199.323 7.68033 199.925Z" fill="white" />
  <path d="M17.8288 245.516C15.1093 246.8 12.0216 247.077 9.11726 246.295C6.21289 245.513 3.68094 243.725 1.97358 241.248C1.62984 240.746 2.3941 240.188 2.7383 240.691C4.32393 243 6.68262 244.666 9.38866 245.388C12.0947 246.111 14.9698 245.842 17.4951 244.631C18.0442 244.368 18.3748 245.255 17.8288 245.516Z" fill="white" />
  <path d="M37.06 262.963C39.1858 257.194 39.0589 250.835 36.7047 245.155C36.471 244.593 37.3563 244.26 37.5897 244.821C40.0285 250.737 40.1471 257.354 37.9219 263.353C37.7094 263.924 36.8487 263.531 37.06 262.963Z" fill="white" />
  <path d="M8.71116 219.517C9.86699 219.239 10.9357 218.679 11.8214 217.886C12.707 217.093 13.3819 216.092 13.7853 214.974C13.9905 214.4 14.8509 214.794 14.6471 215.364C14.1956 216.597 13.449 217.701 12.4724 218.579C11.4959 219.458 10.3191 220.083 9.04489 220.402C8.9273 220.442 8.79886 220.436 8.68567 220.385C8.57247 220.333 8.48303 220.241 8.4355 220.126C8.3919 220.009 8.39639 219.879 8.44801 219.765C8.49963 219.651 8.5942 219.562 8.71116 219.517Z" fill="white" />
  <path d="M79.3356 190.425C79.2177 190.787 79.0998 191.149 78.9867 191.517C77.4268 196.393 76.2656 201.388 75.5146 206.452C75.4503 206.843 75.3911 207.24 75.3382 207.631C73.6589 219.851 74.2629 232.277 77.1196 244.276C78.2607 249.05 79.7634 253.73 81.6146 258.276C84.1715 264.554 87.4434 271.157 87.7675 277.72C87.809 278.404 87.8081 279.09 87.7648 279.775L60.5466 301.762C60.4597 301.781 60.3775 301.806 60.2902 301.826L59.2436 302.753C59.1318 302.525 59.0207 302.287 58.9088 302.059C58.8434 301.927 58.784 301.79 58.7186 301.659C58.6769 301.569 58.6354 301.479 58.5927 301.401C58.5787 301.371 58.565 301.341 58.556 301.318C58.5133 301.239 58.4819 301.162 58.4442 301.09C57.8194 299.758 57.2029 298.419 56.5947 297.073C56.5897 297.067 56.5897 297.067 56.5908 297.056C51.9828 286.79 48.1913 276.05 46.1505 265.076C46.0892 264.746 46.0225 264.41 45.9737 264.07C45.0812 259.118 44.595 254.101 44.5198 249.07C44.4875 246.316 44.5946 243.561 44.8409 240.817C45.4908 233.728 47.2517 226.785 50.0591 220.243C55.6575 207.202 65.3641 196.098 78.3403 190.818C78.6723 190.683 78.9986 190.553 79.3356 190.425Z" fill="#E6E6E6" />
  <path d="M79.5528 190.819C68.1738 204.459 61.3822 221.339 60.1426 239.06C59.8081 242.87 60.0761 246.709 60.937 250.435C61.8929 254.038 63.7963 257.32 66.4493 259.939C68.8739 262.43 71.6425 264.698 73.4193 267.735C74.3057 269.303 74.8506 271.041 75.0182 272.835C75.1858 274.629 74.9724 276.437 74.3919 278.143C73.0561 282.43 70.2596 285.981 67.4042 289.359C64.2338 293.109 60.8813 296.954 59.6432 301.827C59.4932 302.418 58.5858 302.15 58.7356 301.561C60.8897 293.083 68.8813 288.041 72.5157 280.348C74.2116 276.759 74.836 272.636 73.0111 268.968C71.4152 265.76 68.5622 263.419 66.0854 260.918C63.4599 258.401 61.4906 255.28 60.3494 251.827C59.3016 248.156 58.886 244.333 59.1206 240.523C59.5118 231.937 61.2507 223.465 64.2735 215.419C67.6724 206.217 72.6205 197.664 78.9036 190.13C79.2927 189.664 79.9393 190.355 79.5528 190.819Z" fill="white" />
  <path d="M60.2104 233.328C57.2656 232.716 54.6339 231.078 52.7856 228.705C50.9372 226.332 49.9925 223.38 50.1201 220.375C50.1264 220.252 50.18 220.137 50.2697 220.053C50.3593 219.969 50.478 219.924 50.6006 219.926C50.7233 219.928 50.8403 219.977 50.9272 220.064C51.014 220.151 51.0638 220.268 51.0661 220.39C50.9421 223.188 51.8224 225.939 53.5481 228.145C55.2738 230.351 57.7312 231.867 60.4768 232.42C61.0733 232.541 60.8035 233.448 60.2104 233.328Z" fill="white" />
  <path d="M65.0534 258.836C70.2241 255.51 73.9511 250.356 75.4911 244.404C75.6432 243.814 76.5506 244.081 76.3987 244.67C74.7845 250.861 70.8952 256.216 65.5068 259.666C64.993 259.995 64.5424 259.163 65.0534 258.836Z" fill="white" />
  <path d="M68.5787 207.083C69.6688 207.557 70.8596 207.753 72.0442 207.653C73.2287 207.553 74.3699 207.16 75.3653 206.511C75.8747 206.176 76.3248 207.008 75.8187 207.341C74.7156 208.054 73.4548 208.486 72.1463 208.599C70.8378 208.712 69.5214 208.503 68.3123 207.99C68.1943 207.952 68.0954 207.869 68.0359 207.76C67.9763 207.651 67.9605 207.524 67.9917 207.403C68.0276 207.283 68.1093 207.182 68.2193 207.122C68.3292 207.062 68.4583 207.048 68.5787 207.083Z" fill="white" />
  <path d="M220.262 74.6404C236.813 74.6404 250.23 61.2234 250.23 44.6727C250.23 28.122 236.813 14.7051 220.262 14.7051C203.711 14.7051 190.294 28.122 190.294 44.6727C190.294 61.2234 203.711 74.6404 220.262 74.6404Z" fill="#FF6584" />
  <path d="M312.014 43.1091C309.314 40.2565 306.463 37.5504 303.474 35.0024C297.636 30.0517 291.173 25.842 283.968 23.1901C281.256 22.1885 278.453 21.4507 275.599 20.987C275.256 20.9316 274.919 20.8761 274.576 20.8307C274.551 20.8282 274.525 20.8282 274.5 20.8307C274.447 20.8158 274.393 20.8057 274.339 20.8005C273.638 20.7097 272.937 20.6391 272.232 20.5887C268.43 20.336 264.613 20.6797 260.918 21.6071C258.775 22.148 256.683 22.8768 254.667 23.785C252.648 24.7737 250.69 25.8832 248.804 27.1074C247.791 27.7226 246.748 28.2862 245.678 28.7963C242.555 30.276 239.249 31.3339 235.847 31.9422C233.55 32.3543 231.223 32.5836 228.89 32.6278C226.863 32.6682 224.952 32.7387 223.031 33.4698C220.981 34.24 219.14 35.4791 217.655 37.0881C216.169 38.6971 215.081 40.6313 214.476 42.7361C214.428 42.923 214.442 43.1202 214.514 43.299C214.587 43.4777 214.715 43.6285 214.879 43.7292C215.399 44.1023 215.903 44.5258 216.452 44.8585C216.937 45.0798 217.455 45.2212 217.985 45.277C218.852 45.4585 219.721 45.6349 220.591 45.8063C223.793 46.4415 227.008 47.0045 230.236 47.4952C236.729 48.4783 243.26 49.1707 249.827 49.5723C249.867 49.5782 249.908 49.5816 249.948 49.5824C257.367 50.0302 264.805 50.1026 272.232 49.7992C273.356 49.7538 274.475 49.6984 275.599 49.6328C280.283 49.3707 284.955 48.9573 289.615 48.3926C293.925 47.8683 298.219 47.218 302.496 46.4416C305.551 45.887 308.594 45.2686 311.626 44.5863C311.773 44.5427 311.907 44.4619 312.014 44.3517C312.12 44.2415 312.197 44.1056 312.236 43.9571C312.275 43.8086 312.275 43.6525 312.236 43.504C312.197 43.3554 312.121 43.2195 312.014 43.1091Z" fill="#E6E6E6" />
  <path d="M249.725 83.0725C245.387 78.4315 240.607 74.2238 235.453 70.5091C233.744 69.3092 231.984 68.1799 230.174 67.1464C227.955 65.8655 225.651 64.7386 223.278 63.7736C222.748 63.5568 222.214 63.3502 221.679 63.1535C218.643 62.029 215.494 61.2379 212.287 60.7941C212.262 60.7891 212.237 60.7941 212.211 60.7891C212.161 60.779 212.106 60.7689 212.055 60.7588C210.501 60.5572 208.934 60.4612 207.367 60.4714C206.242 60.4714 205.113 60.532 203.994 60.6429C202.185 60.821 200.393 61.131 198.63 61.5705C197.757 61.7873 196.89 62.0394 196.038 62.3267C194.796 62.7357 193.576 63.2103 192.383 63.7484C192.363 63.7585 192.348 63.7636 192.328 63.7736C190.326 64.7528 188.387 65.854 186.52 67.0708C186.48 67.096 186.434 67.1212 186.394 67.1464C184.274 68.4148 182.03 69.4654 179.699 70.2822C177.697 70.9822 175.644 71.525 173.558 71.9056C171.261 72.3188 168.935 72.5464 166.601 72.5862C164.574 72.6265 162.664 72.6971 160.748 73.4332C158.697 74.2033 156.855 75.4423 155.369 77.0512C153.882 78.6601 152.793 80.5944 152.187 82.6995C152.141 82.8864 152.154 83.0833 152.227 83.2618C152.299 83.4403 152.427 83.5912 152.591 83.6926C153.11 84.0657 153.619 84.4842 154.164 84.8169C154.648 85.0399 155.166 85.1813 155.696 85.2353C156.563 85.4169 157.43 85.5983 158.303 85.7697C161.504 86.405 164.72 86.9663 167.952 87.4536C172.384 88.1241 176.834 88.6602 181.302 89.0619C183.419 89.2585 185.539 89.4198 187.659 89.5459C193.099 89.8735 198.544 90.0012 203.994 89.929C205.118 89.9139 206.242 89.8887 207.367 89.8534C214.042 89.6567 220.696 89.156 227.331 88.351C234.726 87.4563 242.071 86.1859 249.337 84.5447C249.484 84.5016 249.617 84.4213 249.724 84.3115C249.831 84.2018 249.908 84.0663 249.947 83.9182C249.986 83.7701 249.986 83.6144 249.947 83.4662C249.908 83.3181 249.832 83.1825 249.725 83.0725Z" fill="#E6E6E6" />
  <path d="M175.031 2.64275L201.432 367.476L148.63 372.163V7.28446C154.922 2.36976 163.954 1.60085 175.031 2.64275Z" fill="#CCCCCC" />
  <path d="M305.349 2.64275L278.948 367.476L331.75 372.162V7.28446C325.458 2.36976 316.427 1.60085 305.349 2.64275Z" fill="#CCCCCC" />
  <path d="M332.992 7.44364C331.353 3.42643 327.869 0.653076 323.841 0.653076H155.974C150.373 0.653076 145.82 6.0272 145.82 12.6392V375.254C145.772 378.608 147.026 381.851 149.319 384.3C150.519 385.56 152.039 386.471 153.715 386.936C154.451 387.14 155.211 387.242 155.974 387.24H323.841C324.604 387.242 325.364 387.14 326.1 386.936C330.617 385.722 333.995 380.949 333.995 375.254V12.6392C334 10.8588 333.659 9.09434 332.992 7.44364ZM330.627 375.254C330.627 379.67 327.582 383.264 323.841 383.264H155.974C152.874 383.264 150.247 380.794 149.445 377.432C149.274 376.718 149.188 375.987 149.188 375.254V12.6392C149.188 8.22329 152.233 4.6346 155.974 4.6346H323.841C324.53 4.63405 325.213 4.75701 325.858 4.99763C328.616 6.00938 330.627 9.05054 330.627 12.6392V375.254Z" fill="#CCCCCC" />
  <path d="M332.31 110.877H147.504V114.247H332.31V110.877Z" fill="#CCCCCC" />
  <path d="M332.31 41.3H147.504V44.6704H332.31V41.3Z" fill="#CCCCCC" />
  <path d="M332.31 167.045H147.504V170.416H332.31V167.045Z" fill="#CCCCCC" />
  <path d="M207.479 2.16333H204.109V214.791H207.479V2.16333Z" fill="#CCCCCC" />
  <path d="M275.705 2.16333H272.334V214.791H275.705V2.16333Z" fill="#CCCCCC" />
  <path d="M353.375 366.178H132.058C128.037 366.182 124.183 367.782 121.34 370.625C118.497 373.468 116.898 377.322 116.893 381.343C116.891 383.276 117.263 385.192 117.987 386.984C119.113 389.796 121.055 392.206 123.563 393.904C126.07 395.602 129.029 396.511 132.058 396.512H353.375C356.023 396.512 358.624 395.818 360.92 394.5C363.216 393.182 365.127 391.286 366.463 389.001C366.844 388.355 367.174 387.681 367.451 386.984C368.176 385.192 368.547 383.276 368.545 381.343C368.539 377.322 366.939 373.467 364.095 370.624C361.251 367.781 357.396 366.182 353.375 366.178Z" fill="#CCCCCC" />
  <path d="M332.312 206.928H148.63V218.162H332.312V206.928Z" fill="#CCCCCC" />
  <path d="M238.783 203.555H242.153C243.792 203.555 245.364 204.206 246.522 205.365C247.681 206.524 248.332 208.096 248.332 209.734H232.604C232.604 208.923 232.764 208.119 233.074 207.37C233.385 206.62 233.84 205.939 234.414 205.365C234.988 204.791 235.669 204.336 236.418 204.026C237.168 203.715 237.971 203.555 238.783 203.555Z" fill="#CCCCCC" />
  <path d="M243.707 238.615C262.932 238.615 278.518 223.03 278.518 203.805C278.518 184.579 262.932 168.994 243.707 168.994C224.482 168.994 208.897 184.579 208.897 203.805C208.897 223.03 224.482 238.615 243.707 238.615Z" fill="#FFB8B8" />
  <path d="M204.88 170.316C205.143 166.319 207.787 162.228 216.186 160.091C216.186 160.091 230.6 141.658 250.187 151.324C250.187 151.324 259.683 149.691 266.725 159.543C266.725 159.543 273.706 155.426 276.651 162.724C276.651 162.724 284.839 177.61 281.825 192.794C278.81 207.978 277.267 209.873 277.267 209.873C277.267 209.873 281.11 178.465 258.979 180.643C236.849 182.821 219.032 175.038 214.02 192.078C209.859 206.227 210.383 213.575 210.383 213.575C210.383 213.575 196.467 199.461 201.198 188.346C203.618 182.662 204.474 176.481 204.88 170.316Z" fill="#2F2E41" />
  <path d="M149.046 394.04H341.592C340.305 379.353 339.464 323.209 339.464 319.514C339.464 303.216 326.128 285.43 326.128 285.43L321.355 282.792L281.491 270.355L271.175 256.954C270.094 255.547 268.702 254.409 267.108 253.631C265.514 252.853 263.761 252.454 261.987 252.468L229.399 252.713C226.531 252.735 223.775 253.827 221.67 255.775L201.491 274.496L171.893 288.629L171.843 288.579L171.533 288.809L167.141 291.972L164.316 294.014C164.316 294.014 156.904 302.907 150.98 329.579C150.088 333.59 149.463 385.521 149.046 394.04Z" fill="#E1B601" />
  <path d="M386.161 386.979C385.697 387.402 385.228 387.82 384.759 388.239C382.985 389.817 381.185 391.368 379.36 392.892C376.602 395.191 373.787 397.421 370.915 399.582H111.712C106.433 395.62 101.35 391.418 96.4612 386.979H386.161Z" fill="#CCCCCC" />
  <path d="M291.148 390.009H195.863L197.88 380.431H289.131L291.148 390.009Z" fill="#2F2E41" />
  <path d="M377.348 348.668H352.554C351.995 348.666 351.441 348.787 350.934 349.022C350.426 349.257 349.976 349.601 349.615 350.029C349.269 349.962 348.918 349.928 348.566 349.928C347.794 349.927 347.028 350.079 346.314 350.374C345.6 350.669 344.951 351.102 344.404 351.649C343.857 352.195 343.424 352.843 343.128 353.557C342.832 354.271 342.68 355.036 342.68 355.809C342.68 356.582 342.832 357.347 343.128 358.061C343.424 358.775 343.857 359.423 344.404 359.97C344.951 360.516 345.6 360.949 346.314 361.244C347.028 361.539 347.794 361.691 348.566 361.69C349.454 361.69 350.33 361.486 351.127 361.095L351.541 366.177L353.184 386.262C353.262 386.513 353.367 386.755 353.497 386.983C353.829 387.593 354.32 388.102 354.917 388.457C355.514 388.812 356.195 389 356.89 389H373.013C373.708 388.999 374.39 388.811 374.988 388.457C375.585 388.102 376.077 387.593 376.411 386.983C376.537 386.754 376.64 386.512 376.718 386.262L381.054 353.684C381.232 353.104 381.272 352.491 381.17 351.893C381.068 351.295 380.827 350.729 380.467 350.241C380.106 349.753 379.636 349.357 379.095 349.083C378.553 348.81 377.955 348.668 377.348 348.668ZM348.566 360.011C347.453 360.01 346.385 359.567 345.598 358.779C344.811 357.991 344.369 356.923 344.369 355.809C344.369 354.695 344.811 353.627 345.598 352.839C346.385 352.051 347.453 351.608 348.566 351.607C348.642 351.607 348.713 351.627 348.788 351.632C348.622 352.309 348.643 353.018 348.849 353.684L350.623 359.452C349.998 359.815 349.289 360.008 348.566 360.011Z" fill="#3F3D56" />
  <path d="M321.353 242.074H164.4C163.052 242.077 161.759 242.613 160.806 243.567C159.852 244.52 159.316 245.813 159.313 247.161V353.073C159.315 354.422 159.851 355.715 160.805 356.669C161.759 357.623 163.052 358.159 164.4 358.16H321.353C322.701 358.159 323.994 357.623 324.948 356.669C325.902 355.715 326.438 354.422 326.439 353.073V247.161C326.437 245.813 325.901 244.52 324.947 243.567C323.994 242.613 322.701 242.077 321.353 242.074Z" fill="#3F3D56" />
  <path d="M260.552 326.937H223.835C223.316 326.938 222.818 327.145 222.451 327.513C222.084 327.88 221.878 328.379 221.879 328.898V386.901H262.513V328.898C262.514 328.641 262.463 328.386 262.364 328.148C262.266 327.91 262.122 327.693 261.939 327.511C261.757 327.329 261.541 327.185 261.303 327.086C261.065 326.988 260.81 326.937 260.552 326.937ZM242.317 359.893C241.169 359.888 240.069 359.429 239.257 358.618C238.445 357.806 237.987 356.706 237.981 355.558V348.868C237.983 347.718 238.44 346.617 239.253 345.805C240.066 344.993 241.168 344.537 242.317 344.537C243.466 344.537 244.568 344.993 245.381 345.805C246.194 346.617 246.652 347.718 246.653 348.868V355.558C246.648 356.706 246.189 357.806 245.377 358.618C244.565 359.429 243.465 359.888 242.317 359.893Z" fill="#2F2E41" />
  <path d="M221.752 385.049V390.645C221.753 390.935 221.868 391.213 222.073 391.418C222.278 391.623 222.556 391.739 222.846 391.739H261.545C261.834 391.738 262.112 391.622 262.317 391.417C262.521 391.213 262.637 390.935 262.639 390.645V385.049H221.752Z" fill="#3F3D56" />
  <path d="M318.011 351.966C319.379 351.966 320.489 350.856 320.489 349.488C320.489 348.12 319.379 347.01 318.011 347.01C316.643 347.01 315.533 348.12 315.533 349.488C315.533 350.856 316.643 351.966 318.011 351.966Z" fill="#2F2E41" />
  <path d="M184.212 345.891C184.098 345.891 183.985 345.914 183.88 345.957C183.775 346.001 183.679 346.065 183.599 346.145C183.518 346.226 183.455 346.321 183.411 346.427C183.367 346.532 183.345 346.645 183.345 346.758V351.22C183.346 351.45 183.437 351.67 183.6 351.832C183.762 351.994 183.983 352.085 184.212 352.085C184.442 352.085 184.662 351.994 184.824 351.832C184.987 351.67 185.079 351.45 185.079 351.22V346.758C185.079 346.645 185.057 346.532 185.013 346.427C184.97 346.321 184.906 346.226 184.825 346.145C184.745 346.065 184.649 346.001 184.544 345.957C184.439 345.914 184.326 345.891 184.212 345.891Z" fill="#2F2E41" />
  <path d="M188.92 345.891C188.806 345.891 188.693 345.914 188.588 345.957C188.483 346.001 188.387 346.065 188.306 346.145C188.226 346.226 188.162 346.321 188.118 346.427C188.075 346.532 188.052 346.645 188.052 346.758V351.22C188.052 351.45 188.144 351.671 188.306 351.833C188.469 351.996 188.69 352.087 188.92 352.087C189.15 352.087 189.37 351.996 189.533 351.833C189.695 351.671 189.787 351.45 189.787 351.22V346.758C189.787 346.645 189.764 346.532 189.721 346.427C189.677 346.321 189.613 346.226 189.533 346.145C189.452 346.065 189.357 346.001 189.251 345.957C189.146 345.914 189.033 345.891 188.92 345.891Z" fill="#2F2E41" />
  <path d="M193.631 345.891C193.517 345.891 193.404 345.914 193.299 345.957C193.194 346.001 193.098 346.065 193.018 346.145C192.937 346.226 192.873 346.321 192.83 346.427C192.786 346.532 192.764 346.645 192.764 346.758V351.22C192.764 351.45 192.856 351.67 193.018 351.832C193.181 351.994 193.401 352.085 193.631 352.085C193.86 352.085 194.081 351.994 194.243 351.832C194.406 351.67 194.497 351.45 194.498 351.22V346.758C194.498 346.645 194.476 346.532 194.432 346.427C194.388 346.321 194.325 346.226 194.244 346.145C194.163 346.065 194.068 346.001 193.963 345.957C193.857 345.914 193.745 345.891 193.631 345.891Z" fill="#2F2E41" />
  <path d="M198.336 345.891C198.222 345.891 198.109 345.914 198.004 345.957C197.899 346.001 197.803 346.065 197.723 346.145C197.642 346.226 197.578 346.321 197.535 346.427C197.491 346.532 197.469 346.645 197.469 346.758V351.22C197.469 351.45 197.561 351.67 197.724 351.832C197.886 351.994 198.106 352.085 198.336 352.085C198.566 352.085 198.786 351.994 198.948 351.832C199.111 351.67 199.202 351.45 199.203 351.22V346.758C199.203 346.645 199.181 346.532 199.137 346.427C199.093 346.321 199.03 346.226 198.949 346.145C198.869 346.065 198.773 346.001 198.668 345.957C198.563 345.914 198.45 345.891 198.336 345.891Z" fill="#2F2E41" />
  <path d="M202.096 387.489C209.336 387.489 215.204 381.62 215.204 374.381C215.204 367.142 209.336 361.273 202.096 361.273C194.857 361.273 188.988 367.142 188.988 374.381C188.988 381.62 194.857 387.489 202.096 387.489Z" fill="#FFB8B8" />
  <path d="M293.662 390.004C300.902 390.004 306.77 384.135 306.77 376.896C306.77 369.656 300.902 363.788 293.662 363.788C286.423 363.788 280.554 369.656 280.554 376.896C280.554 384.135 286.423 390.004 293.662 390.004Z" fill="#FFB8B8" />
  <path d="M428.96 218.68C427.665 216.537 426.13 214.25 423.726 213.551C420.943 212.741 418.083 214.35 415.658 215.938C408.404 220.687 401.418 225.834 394.733 231.355L394.74 231.438C399.945 231.079 404.265 244.918 409.469 244.559C413.23 244.3 418.005 229.807 421.328 228.028C422.589 227.353 423.818 226.451 425.247 226.388C427.022 226.31 428.57 227.55 429.787 228.846C436.983 236.508 439.065 248.227 447.138 254.959C442.048 242.404 435.969 230.273 428.96 218.68Z" fill="#3F3D56" />
  <path d="M442.812 237.292C446.608 244.148 450.635 250.868 454.892 257.453V257.458C454.866 257.69 454.831 257.921 454.796 258.153C454.282 257.367 453.772 256.577 453.268 255.784C449.447 249.79 445.815 243.681 442.374 237.458C440.74 234.499 439.147 231.516 437.594 228.509C436.394 226.18 435.22 223.838 434.07 221.481C433.742 220.806 433.425 220.13 433.107 219.45C432.361 217.857 431.625 216.253 430.839 214.68C429.941 212.886 428.847 211.01 427.199 209.805C426.449 209.234 425.552 208.888 424.612 208.807C423.289 208.815 421.993 209.187 420.866 209.881C412.338 214.364 404.378 219.853 397.156 226.231C389.926 232.583 383.463 239.759 377.898 247.612C377.726 247.854 377.323 247.622 377.494 247.375C378.175 246.417 378.861 245.474 379.566 244.536C388.314 232.904 399.04 222.9 411.252 214.983C413.304 213.652 415.396 212.383 417.529 211.177C418.603 210.567 419.682 209.967 420.781 209.402C421.833 208.785 423.013 208.42 424.229 208.333C428.414 208.268 430.581 213.007 432.069 216.193C432.532 217.196 433.005 218.198 433.485 219.198C435.295 222.979 437.176 226.73 439.127 230.45C440.327 232.744 441.555 235.025 442.812 237.292Z" fill="#3F3D56" />
  <path d="M396.751 223.891C396.508 223.621 396.267 223.35 396.022 223.079C394.093 220.945 392.023 218.836 389.374 217.613C388.111 217.012 386.732 216.692 385.333 216.676C383.889 216.716 382.466 217.026 381.137 217.591C380.505 217.844 379.887 218.13 379.279 218.435C378.584 218.785 377.901 219.158 377.221 219.535C375.945 220.241 374.686 220.978 373.443 221.746C370.971 223.274 368.576 224.918 366.258 226.68C365.056 227.593 363.88 228.537 362.728 229.51C361.656 230.414 360.607 231.343 359.578 232.296C359.359 232.498 359.03 232.17 359.25 231.967C359.521 231.715 359.795 231.464 360.069 231.216C360.843 230.517 361.63 229.83 362.429 229.157C363.886 227.928 365.38 226.746 366.913 225.612C369.296 223.847 371.76 222.201 374.307 220.676C375.58 219.914 376.87 219.184 378.178 218.486C378.573 218.276 378.972 218.07 379.376 217.875C380.293 217.412 381.246 217.024 382.225 216.715C383.612 216.266 385.08 216.122 386.528 216.292C387.926 216.496 389.273 216.962 390.498 217.666C393.099 219.12 395.116 221.368 397.08 223.562C397.278 223.785 396.951 224.114 396.751 223.891Z" fill="#3F3D56" />
  <path d="M377.718 234.159C377.056 234.192 376.403 234.005 375.859 233.627C374.42 232.536 374.458 229.917 375.975 225.619C376.388 224.455 377.035 223.387 377.876 222.483C378.718 221.578 379.736 220.856 380.868 220.36C381.928 219.886 383.076 219.637 384.237 219.631C385.398 219.624 386.549 219.858 387.614 220.32C387.801 220.4 387.984 220.487 388.165 220.58C389.399 221.271 390.555 222.091 391.615 223.028C392.515 223.809 393.476 224.519 394.488 225.15L394.826 225.348L394.506 225.573C386.339 231.323 380.802 234.159 377.718 234.159Z" fill="#3F3D56" />
  <path d="M409.113 199.941C406.428 199.941 403.826 199.008 401.751 197.303C399.676 195.598 398.257 193.226 397.737 190.592C395.491 191.046 393.431 192.156 391.816 193.78C390.2 195.405 389.102 197.471 388.66 199.719C388.218 201.967 388.452 204.296 389.332 206.411C390.212 208.526 391.699 210.333 393.605 211.604C395.511 212.875 397.751 213.553 400.042 213.552C402.333 213.552 404.572 212.872 406.477 211.6C408.383 210.328 409.868 208.52 410.747 206.404C411.626 204.288 411.858 201.96 411.414 199.712C410.657 199.865 409.886 199.941 409.113 199.941Z" fill="#3F3D56" />
  <path opacity="0.74" d="M98.7232 218.599C108.28 218.599 116.027 210.852 116.027 201.295C116.027 191.738 108.28 183.991 98.7232 183.991C89.1666 183.991 81.4194 191.738 81.4194 201.295C81.4194 210.852 89.1666 218.599 98.7232 218.599Z" fill="#3F3D56" />
  <path opacity="0.74" d="M116.028 218.599C125.584 218.599 133.331 210.852 133.331 201.295C133.331 191.738 125.584 183.991 116.028 183.991C106.471 183.991 98.7239 191.738 98.7239 201.295C98.7239 210.852 106.471 218.599 116.028 218.599Z" fill="#E1B601" />
  <path opacity="0.74" d="M107.525 204.806C117.082 204.806 124.829 197.059 124.829 187.502C124.829 177.945 117.082 170.198 107.525 170.198C97.9686 170.198 90.2214 177.945 90.2214 187.502C90.2214 197.059 97.9686 204.806 107.525 204.806Z" fill="#FF6584" />
  <path d="M152.772 182.544L108.325 196.508L108.628 197.47L153.074 183.506L152.772 182.544Z" fill="#3F3D56" />
  <path d="M153.051 184.88C154.165 184.88 155.068 183.977 155.068 182.863C155.068 181.75 154.165 180.847 153.051 180.847C151.938 180.847 151.035 181.75 151.035 182.863C151.035 183.977 151.938 184.88 153.051 184.88Z" fill="#3F3D56" />
  <path d="M441.59 273.601C444.545 275.683 447.383 277.806 450.63 279.409C450.569 279.656 450.504 279.908 450.443 280.155C450.045 279.969 449.657 279.772 449.269 279.57C445.976 277.846 443.143 275.502 440.053 273.465C438.521 272.406 436.847 271.568 435.082 270.974C433.241 270.421 431.318 270.196 429.4 270.309C421.399 270.702 414.543 275.476 407.106 277.881C403.466 279.061 399.595 279.691 395.798 278.95C392.002 278.209 388.629 276.192 385.277 274.367C381.97 272.563 378.365 270.748 374.503 270.748C371.357 270.753 368.05 272.013 366.366 274.796C366.314 274.879 366.231 274.938 366.136 274.962C366.04 274.985 365.939 274.97 365.855 274.92C365.77 274.87 365.708 274.789 365.682 274.695C365.656 274.6 365.668 274.499 365.716 274.413C366.092 273.779 366.556 273.2 367.092 272.694C369.29 270.611 372.522 269.79 375.491 270.032C379.333 270.344 382.837 272.159 386.159 273.984C389.683 275.92 393.293 278.002 397.366 278.426C401.389 278.849 405.372 277.796 409.103 276.379C416.327 273.631 423.456 269.054 431.492 269.563C435.283 269.805 438.53 271.448 441.59 273.601Z" fill="#3F3D56" />
  <path d="M125.375 127.796V128.82C125.036 128.753 124.691 128.719 124.346 128.719H119.073V140.042C119.072 141.719 118.405 143.326 117.22 144.511C116.034 145.697 114.427 146.363 112.751 146.364H104.956V148.109C104.956 148.808 105.095 149.5 105.365 150.145H104.286C104.06 149.49 103.946 148.802 103.948 148.109V146.364H99.6628V145.356H103.948V134.033C103.949 132.356 104.615 130.749 105.801 129.563C106.986 128.378 108.594 127.712 110.27 127.711H118.064V125.946H119.073V127.711H124.346C124.691 127.711 125.035 127.74 125.375 127.796Z" fill="#E1B601" />
  <path d="M112.75 119.649H98.6741C96.9977 119.65 95.3902 120.316 94.2048 121.502C93.0194 122.687 92.353 124.295 92.3521 125.971V140.047C92.353 141.723 93.0194 143.331 94.2048 144.516C95.3902 145.702 96.9977 146.368 98.6741 146.369H112.75C114.426 146.368 116.034 145.702 117.219 144.516C118.405 143.331 119.071 141.723 119.072 140.047V125.951C119.066 124.278 118.397 122.675 117.212 121.494C116.028 120.313 114.423 119.65 112.75 119.649ZM118.064 140.047C118.062 141.456 117.501 142.806 116.505 143.802C115.509 144.798 114.159 145.359 112.75 145.361H98.6741C97.2654 145.359 95.9149 144.798 94.9188 143.802C93.9227 142.806 93.3623 141.456 93.3604 140.047V125.971C93.3623 124.562 93.9227 123.212 94.9188 122.216C95.9149 121.22 97.2654 120.659 98.6741 120.657H112.75C114.155 120.659 115.503 121.216 116.498 122.208C117.494 123.2 118.057 124.546 118.064 125.951V140.047Z" fill="#3F3D56" />
  <path d="M103.945 145.356V146.365H104.954V145.356H103.945ZM103.945 145.356V146.365H104.954V145.356H103.945ZM125.372 127.797C125.032 127.74 124.688 127.711 124.343 127.711H110.267C108.591 127.712 106.984 128.378 105.798 129.564C104.613 130.749 103.946 132.357 103.945 134.033V148.109C103.943 148.802 104.058 149.49 104.283 150.146C104.709 151.395 105.514 152.48 106.588 153.248C107.661 154.017 108.947 154.43 110.267 154.431H124.343C126.02 154.43 127.627 153.764 128.813 152.578C129.998 151.393 130.664 149.785 130.665 148.109V134.033C130.665 132.535 130.133 131.086 129.163 129.943C128.194 128.801 126.85 128.04 125.372 127.797ZM129.657 148.109C129.655 149.518 129.095 150.868 128.099 151.864C127.102 152.86 125.752 153.421 124.343 153.423H110.267C108.859 153.421 107.508 152.86 106.512 151.864C105.516 150.868 104.956 149.518 104.954 148.109V134.033C104.956 132.624 105.516 131.274 106.512 130.278C107.508 129.282 108.859 128.721 110.267 128.719H124.343C125.752 128.72 127.104 129.28 128.1 130.276C129.096 131.273 129.656 132.624 129.657 134.033V148.109ZM103.945 145.356V146.365H104.954V145.356H103.945Z" fill="#3F3D56" />
  <path d="M93.9878 276.781H34.1955C33.7793 276.781 33.3801 276.947 33.0853 277.24C32.7905 277.534 32.6241 277.933 32.6226 278.349V281.893C34.5952 289.449 36.9835 296.89 39.7765 304.182H93.9878C94.1938 304.182 94.3978 304.142 94.5881 304.063C94.7784 303.984 94.9513 303.869 95.097 303.723C95.2426 303.577 95.3581 303.405 95.4368 303.214C95.5155 303.024 95.5559 302.82 95.5557 302.614V278.349C95.5553 277.933 95.3899 277.535 95.096 277.241C94.8021 276.947 94.4035 276.782 93.9878 276.781Z" fill="#E1B601" />
  <path d="M88.2899 312.054H42.9668C43.5062 313.32 44.0558 314.575 44.6255 315.825H88.2899C90.7502 315.861 90.725 312.019 88.2899 312.054Z" fill="#E4E4E4" />
  <path d="M88.2955 320.696H46.9048C47.5097 321.961 48.1315 323.218 48.7701 324.467H88.2955C90.7558 324.502 90.7306 320.666 88.2955 320.696Z" fill="#E4E4E4" />
  <path d="M88.29 329.34H51.3105C51.9861 330.606 52.6818 331.861 53.3876 333.111H88.29C90.7502 333.147 90.725 329.305 88.29 329.34Z" fill="#E4E4E4" />
  <path d="M398.273 96.9451H397.986C398.88 96.9459 399.762 97.1544 400.562 97.5543H399.254C397.846 97.5559 396.495 98.1162 395.499 99.1123C394.503 100.108 393.943 101.459 393.941 102.868V116.944C393.943 118.353 394.503 119.703 395.499 120.7C396.495 121.696 397.846 122.256 399.254 122.258H400.088C399.418 122.52 398.705 122.656 397.986 122.657H398.273C399.816 122.655 401.294 122.041 402.385 120.951C403.476 119.86 404.089 118.381 404.091 116.839V102.763C404.089 101.22 403.476 99.7416 402.385 98.651C401.294 97.5603 399.816 96.9468 398.273 96.9451Z" fill="#3F3D56" />
  <path opacity="0.21" d="M398.273 96.9451H397.986C398.88 96.9459 399.762 97.1544 400.562 97.5543H399.254C397.846 97.5559 396.495 98.1162 395.499 99.1123C394.503 100.108 393.943 101.459 393.941 102.868V116.944C393.943 118.353 394.503 119.703 395.499 120.7C396.495 121.696 397.846 122.256 399.254 122.258H400.088C399.418 122.52 398.705 122.656 397.986 122.657H398.273C399.816 122.655 401.294 122.041 402.385 120.951C403.476 119.86 404.089 118.381 404.091 116.839V102.763C404.089 101.22 403.476 99.7416 402.385 98.651C401.294 97.5603 399.816 96.9468 398.273 96.9451Z" fill="black" />
  <path d="M360.961 96.9451H360.674C361.568 96.9459 362.45 97.1544 363.25 97.5543H361.943C360.534 97.5559 359.183 98.1162 358.187 99.1123C357.191 100.108 356.631 101.459 356.629 102.868V116.944C356.631 118.353 357.191 119.703 358.187 120.7C359.183 121.696 360.534 122.256 361.943 122.258H362.776C362.106 122.52 361.394 122.656 360.674 122.657H360.961C362.504 122.655 363.983 122.041 365.073 120.951C366.164 119.86 366.777 118.381 366.779 116.839V102.763C366.777 101.22 366.164 99.7416 365.073 98.651C363.983 97.5603 362.504 96.9468 360.961 96.9451Z" fill="#E1B601" />
  <path opacity="0.21" d="M360.961 96.9451H360.674C361.568 96.9459 362.45 97.1544 363.25 97.5543H361.943C360.534 97.5559 359.183 98.1162 358.187 99.1123C357.191 100.108 356.631 101.459 356.629 102.868V116.944C356.631 118.353 357.191 119.703 358.187 120.7C359.183 121.696 360.534 122.256 361.943 122.258H362.776C362.106 122.52 361.394 122.656 360.674 122.657H360.961C362.504 122.655 363.983 122.041 365.073 120.951C366.164 119.86 366.777 118.381 366.779 116.839V102.763C366.777 101.22 366.164 99.7416 365.073 98.651C363.983 97.5603 362.504 96.9468 360.961 96.9451Z" fill="black" />
  <path d="M362.003 122.304C360.594 122.302 359.243 121.742 358.247 120.746C357.251 119.75 356.691 118.399 356.689 116.99V102.914C356.691 101.505 357.251 100.155 358.247 99.1585C359.243 98.1623 360.594 97.602 362.003 97.6004H363.31C362.51 97.2006 361.629 96.992 360.734 96.9912H346.658C345.116 96.993 343.637 97.6065 342.546 98.6971C341.456 99.7878 340.842 101.266 340.84 102.809V116.885C340.842 118.428 341.456 119.906 342.546 120.997C343.637 122.088 345.116 122.701 346.658 122.703H360.734C361.454 122.702 362.167 122.567 362.836 122.304L362.003 122.304Z" fill="#E1B601" />
  <path d="M399.31 122.304C397.901 122.302 396.55 121.742 395.554 120.746C394.558 119.75 393.998 118.399 393.996 116.99V102.914C393.998 101.505 394.558 100.155 395.554 99.1585C396.55 98.1623 397.901 97.602 399.31 97.6004H400.617C399.817 97.2006 398.935 96.992 398.041 96.9912H383.965C382.422 96.993 380.944 97.6065 379.853 98.6971C378.762 99.7878 378.149 101.266 378.147 102.809V116.885C378.149 118.428 378.762 119.906 379.853 120.997C380.944 122.088 382.422 122.701 383.965 122.703H398.041C398.761 122.702 399.473 122.567 400.143 122.304L399.31 122.304Z" fill="#3F3D56" />
  <path d="M415.923 100.491C421.089 107.598 425.815 115.015 430.075 122.699H421.262C419.72 122.697 418.241 122.083 417.151 120.992C416.06 119.902 415.447 118.423 415.444 116.881V102.805C415.444 102.009 415.607 101.222 415.923 100.491Z" fill="#FF6584" />
  <path d="M398.261 130.091L393.331 122.705L389.726 117.305C389.516 116.99 389.22 116.741 388.874 116.586C388.528 116.432 388.145 116.379 387.77 116.433C387.395 116.487 387.043 116.647 386.754 116.893C386.466 117.14 386.254 117.462 386.141 117.825L384.624 122.705L381.569 132.51C381.448 132.901 381.449 133.319 381.573 133.709C381.696 134.099 381.935 134.442 382.258 134.692C382.581 134.943 382.973 135.089 383.382 135.11C383.79 135.132 384.195 135.029 384.543 134.814L385.627 134.144C385.845 134.009 386.094 133.933 386.35 133.921C386.606 133.91 386.861 133.964 387.09 134.079C387.32 134.193 387.516 134.365 387.66 134.576C387.805 134.788 387.893 135.033 387.916 135.288L388.909 146.128C388.956 146.625 389.186 147.088 389.555 147.425C389.924 147.763 390.406 147.951 390.906 147.953C390.966 147.953 391.027 147.948 391.092 147.942L392.615 147.806C392.877 147.783 393.133 147.707 393.366 147.584C393.6 147.462 393.807 147.294 393.975 147.091C394.144 146.889 394.271 146.655 394.349 146.403C394.427 146.151 394.454 145.886 394.43 145.623L393.406 134.431C393.382 134.168 393.427 133.904 393.538 133.664C393.649 133.424 393.82 133.218 394.036 133.065C394.252 132.913 394.504 132.82 394.767 132.796C395.03 132.772 395.294 132.818 395.534 132.929L395.756 133.03C396.153 133.213 396.599 133.261 397.026 133.167C397.453 133.073 397.838 132.842 398.121 132.509C398.405 132.176 398.572 131.76 398.598 131.323C398.623 130.887 398.505 130.454 398.261 130.091Z" fill="#CCCCCC" />
</svg>
  